#N canvas 0 23 1680 1001 10;
#X obj 578 367 t b b b b b b b b;
#X obj 685 358 t b b b b b b b b;
#X obj 811 364 t b b b b b b b b;
#X obj 912 366 t b b b b b b b b;
#X obj 572 702 pack f f f f f f f f;
#X obj 709 702 pack f f f f f f f f;
#X obj 850 701 pack f f f f f f f f;
#X obj 989 698 pack f f f f f f f f;
#X msg 674 750 *CO\$5FN\$6PM\$7PT\$8;
#X msg 838 745 *AT\$5DC\$6SU\$7RL\$8;
#X msg 961 744 *FX\$5FY\$6FW\$7FZ\$8;
#X msg 1120 738 *VO\$5PN\$6DL\$7PR\$8;
#X obj 637 764 s os;
#X obj 696 776 s oz;
#X obj 790 762 s os;
#X obj 849 775 s oz;
#X obj 911 761 s os;
#X obj 970 773 s oz;
#X obj 1067 760 s os;
#X obj 1126 773 s oz;
#X obj 565 312 inlet;
#X obj 708 322 inlet;
#X obj 798 318 inlet;
#X obj 901 311 inlet;
#X obj 595 430 v As\$1;
#X obj 651 430 v Bs\$1;
#X obj 705 430 v Cs\$1;
#X obj 758 430 v Ds\$1;
#X obj 808 430 v Es\$1;
#X obj 867 430 v Fs\$1;
#X obj 919 430 v Gs\$1;
#X obj 974 430 v Hs\$1;
#X obj 972 505 v Hf\$1;
#X obj 917 505 v Gf\$1;
#X obj 865 505 v Ff\$1;
#X obj 806 505 v Ef\$1;
#X obj 756 505 v Df\$1;
#X obj 703 505 v Cf\$1;
#X obj 649 505 v Bf\$1;
#X obj 593 505 v Af\$1;
#X obj 594 568 v Aa\$1;
#X obj 650 568 v Ba\$1;
#X obj 704 568 v Ca\$1;
#X obj 757 568 v Da\$1;
#X obj 807 568 v Ea\$1;
#X obj 866 568 v Fa\$1;
#X obj 918 568 v Ga\$1;
#X obj 973 568 v Ha\$1;
#X obj 972 643 v Hm\$1;
#X obj 917 643 v Gm\$1;
#X obj 865 643 v Fm\$1;
#X obj 806 643 v Em\$1;
#X obj 756 643 v Dm\$1;
#X obj 703 643 v Cm\$1;
#X obj 649 643 v Bm\$1;
#X obj 593 645 v Am\$1;
#X msg 777 730 FR\$1RS\$2EV\$3FW\$4;
#X msg 625 731 NO\$1ST\$2ED\$3BR\$4;
#X msg 904 726 RS\$1FL\$2VL\$3OD\$4;
#X msg 1065 720 NT\$1NR\$2LN\$3LR\$4;
#X connect 0 0 24 0;
#X connect 0 1 25 0;
#X connect 0 2 26 0;
#X connect 0 3 27 0;
#X connect 0 4 28 0;
#X connect 0 5 29 0;
#X connect 0 6 30 0;
#X connect 0 7 31 0;
#X connect 1 0 39 0;
#X connect 1 1 38 0;
#X connect 1 2 37 0;
#X connect 1 3 36 0;
#X connect 1 4 35 0;
#X connect 1 5 34 0;
#X connect 1 6 33 0;
#X connect 1 7 32 0;
#X connect 2 0 40 0;
#X connect 2 1 41 0;
#X connect 2 2 42 0;
#X connect 2 3 43 0;
#X connect 2 4 44 0;
#X connect 2 5 45 0;
#X connect 2 6 46 0;
#X connect 2 7 47 0;
#X connect 3 0 55 0;
#X connect 3 1 54 0;
#X connect 3 2 53 0;
#X connect 3 3 52 0;
#X connect 3 4 51 0;
#X connect 3 5 50 0;
#X connect 3 6 49 0;
#X connect 3 7 48 0;
#X connect 4 0 57 0;
#X connect 4 0 8 0;
#X connect 5 0 56 0;
#X connect 5 0 9 0;
#X connect 6 0 58 0;
#X connect 6 0 10 0;
#X connect 7 0 59 0;
#X connect 7 0 11 0;
#X connect 8 0 13 0;
#X connect 9 0 15 0;
#X connect 10 0 17 0;
#X connect 11 0 19 0;
#X connect 20 0 0 0;
#X connect 21 0 1 0;
#X connect 22 0 2 0;
#X connect 23 0 3 0;
#X connect 24 0 4 0;
#X connect 25 0 4 1;
#X connect 26 0 4 2;
#X connect 27 0 4 3;
#X connect 28 0 4 4;
#X connect 29 0 4 5;
#X connect 30 0 4 6;
#X connect 31 0 4 7;
#X connect 32 0 5 7;
#X connect 33 0 5 6;
#X connect 34 0 5 5;
#X connect 35 0 5 4;
#X connect 36 0 5 3;
#X connect 37 0 5 2;
#X connect 38 0 5 1;
#X connect 39 0 5 0;
#X connect 40 0 6 0;
#X connect 41 0 6 1;
#X connect 42 0 6 2;
#X connect 43 0 6 3;
#X connect 44 0 6 4;
#X connect 45 0 6 5;
#X connect 46 0 6 6;
#X connect 47 0 6 7;
#X connect 48 0 7 7;
#X connect 49 0 7 6;
#X connect 50 0 7 5;
#X connect 51 0 7 4;
#X connect 52 0 7 3;
#X connect 53 0 7 2;
#X connect 54 0 7 1;
#X connect 55 0 7 0;
#X connect 56 0 14 0;
#X connect 57 0 12 0;
#X connect 58 0 16 0;
#X connect 59 0 18 0;
