#N canvas 735 63 907 779 10;
#X obj 198 500 t f f f f f f f f;
#X obj 197 575 t f f f f f f f f;
#X obj 199 362 t f f f f f f f f;
#X obj 141 376 int 1;
#X obj 233 300 int 50;
#X obj 197 437 t f f f f f f f f;
#X obj 185 133 loadbang;
#X obj 199 395 v As\$1;
#X obj 255 395 v Bs\$1;
#X obj 309 395 v Cs\$1;
#X obj 362 395 v Ds\$1;
#X obj 412 395 v Es\$1;
#X obj 471 395 v Fs\$1;
#X obj 523 395 v Gs\$1;
#X obj 197 470 v Af\$1;
#X obj 253 470 v Bf\$1;
#X obj 307 470 v Cf\$1;
#X obj 360 470 v Df\$1;
#X obj 410 470 v Ef\$1;
#X obj 469 470 v Ff\$1;
#X obj 521 470 v Gf\$1;
#X obj 576 470 v Hf\$1;
#X obj 578 395 v Hs\$1;
#X obj 577 533 v Ha\$1;
#X obj 522 533 v Ga\$1;
#X obj 470 533 v Fa\$1;
#X obj 411 533 v Ea\$1;
#X obj 361 533 v Da\$1;
#X obj 254 533 v Ba\$1;
#X obj 198 533 v Aa\$1;
#X obj 308 533 v Ca\$1;
#X obj 576 608 v Hm\$1;
#X obj 521 608 v Gm\$1;
#X obj 469 608 v Fm\$1;
#X obj 410 608 v Em\$1;
#X obj 360 608 v Dm\$1;
#X obj 307 608 v Cm\$1;
#X obj 253 608 v Bm\$1;
#X obj 197 610 v Am\$1;
#X obj 185 157 del 7500;
#X obj 295 133 inlet;
#X obj 290 163 t b b;
#X obj 364 247 t b b b b b b b b;
#X obj 475 247 t b b b b b b b b;
#X obj 587 246 t b b b b b b b b;
#X obj 698 246 t b b b b b b b b;
#X obj 456 105 inlet;
#X obj 245 705 pack f f f f f f f f;
#X obj 382 705 pack f f f f f f f f;
#X obj 523 704 pack f f f f f f f f;
#X obj 662 701 pack f f f f f f f f;
#X text 1253 1321 comment;
#X text 1290 1466 comment;
#X obj 529 788 list append;
#X obj 466 823 list append;
#X obj 403 849 list append;
#X obj 403 887 text fromlist trackValue\$1;
#X msg 203 892 write track\$1Val-\$2.text;
#X obj 203 826 int \$1;
#X obj 203 858 pack f f;
#X obj 203 799 t b f, f 6;
#X obj 455 163 t b f b b b b;
#X obj 941 203 inlet;
#X text 451 72 save function;
#X text 890 150 load function;
#X obj 203 925 text define trackValue\$1;
#X obj 43 827 int \$1;
#X obj 43 859 pack f f;
#X obj 43 800 t b f, f 6;
#X msg 43 893 read track\$1Val-\$2.text;
#X obj 941 283 text tolist trackValue\$1;
#X obj 901 352 unpack f f f f f f f f f f f f f f f f f f f f f f f
f f f f f f f f f, f 73;
#X obj 941 240 t b f;
#X connect 0 1 28 0;
#X connect 0 2 30 0;
#X connect 0 3 27 0;
#X connect 0 4 26 0;
#X connect 0 5 25 0;
#X connect 0 6 24 0;
#X connect 0 7 23 0;
#X connect 1 0 38 0;
#X connect 1 1 37 0;
#X connect 1 2 36 0;
#X connect 1 3 35 0;
#X connect 1 4 34 0;
#X connect 1 5 33 0;
#X connect 1 6 32 0;
#X connect 1 7 31 0;
#X connect 2 1 8 0;
#X connect 2 2 9 0;
#X connect 2 3 10 0;
#X connect 2 4 11 0;
#X connect 2 5 12 0;
#X connect 2 6 13 0;
#X connect 2 7 22 0;
#X connect 3 0 7 0;
#X connect 3 0 29 0;
#X connect 4 0 2 0;
#X connect 4 0 5 0;
#X connect 4 0 0 0;
#X connect 4 0 1 0;
#X connect 5 0 14 0;
#X connect 5 1 15 0;
#X connect 5 2 16 0;
#X connect 5 3 17 0;
#X connect 5 4 18 0;
#X connect 5 5 19 0;
#X connect 5 6 20 0;
#X connect 5 7 21 0;
#X connect 6 0 39 0;
#X connect 7 0 47 0;
#X connect 8 0 47 1;
#X connect 9 0 47 2;
#X connect 10 0 47 3;
#X connect 11 0 47 4;
#X connect 12 0 47 5;
#X connect 13 0 47 6;
#X connect 14 0 48 0;
#X connect 15 0 48 1;
#X connect 16 0 48 2;
#X connect 17 0 48 3;
#X connect 18 0 48 4;
#X connect 19 0 48 5;
#X connect 20 0 48 6;
#X connect 21 0 48 7;
#X connect 22 0 47 7;
#X connect 23 0 49 7;
#X connect 24 0 49 6;
#X connect 25 0 49 5;
#X connect 26 0 49 4;
#X connect 27 0 49 3;
#X connect 28 0 49 1;
#X connect 29 0 49 0;
#X connect 30 0 49 2;
#X connect 31 0 50 7;
#X connect 32 0 50 6;
#X connect 33 0 50 5;
#X connect 34 0 50 4;
#X connect 35 0 50 3;
#X connect 36 0 50 2;
#X connect 37 0 50 1;
#X connect 38 0 50 0;
#X connect 39 0 3 0;
#X connect 39 0 4 0;
#X connect 40 0 41 0;
#X connect 41 0 3 0;
#X connect 41 0 4 0;
#X connect 42 0 7 0;
#X connect 42 1 8 0;
#X connect 42 2 9 0;
#X connect 42 3 10 0;
#X connect 42 4 11 0;
#X connect 42 5 12 0;
#X connect 42 6 13 0;
#X connect 42 7 22 0;
#X connect 43 0 14 0;
#X connect 43 1 15 0;
#X connect 43 2 16 0;
#X connect 43 3 17 0;
#X connect 43 4 18 0;
#X connect 43 5 19 0;
#X connect 43 6 20 0;
#X connect 43 7 21 0;
#X connect 44 0 29 0;
#X connect 44 1 28 0;
#X connect 44 2 30 0;
#X connect 44 3 27 0;
#X connect 44 4 26 0;
#X connect 44 5 25 0;
#X connect 44 6 24 0;
#X connect 44 7 23 0;
#X connect 45 0 38 0;
#X connect 45 1 37 0;
#X connect 45 2 36 0;
#X connect 45 3 35 0;
#X connect 45 4 34 0;
#X connect 45 5 33 0;
#X connect 45 6 32 0;
#X connect 45 7 31 0;
#X connect 46 0 61 0;
#X connect 47 0 55 0;
#X connect 48 0 54 0;
#X connect 49 0 53 0;
#X connect 50 0 53 1;
#X connect 53 0 54 1;
#X connect 54 0 55 1;
#X connect 55 0 56 0;
#X connect 57 0 65 0;
#X connect 58 0 59 0;
#X connect 59 0 57 0;
#X connect 60 0 58 0;
#X connect 60 1 59 1;
#X connect 61 1 60 0;
#X connect 61 2 42 0;
#X connect 61 3 43 0;
#X connect 61 4 44 0;
#X connect 61 5 45 0;
#X connect 62 0 72 0;
#X connect 66 0 67 0;
#X connect 67 0 69 0;
#X connect 68 0 66 0;
#X connect 68 1 67 1;
#X connect 69 0 65 0;
#X connect 70 0 71 0;
#X connect 71 0 7 0;
#X connect 71 1 8 0;
#X connect 71 2 9 0;
#X connect 71 3 10 0;
#X connect 71 4 11 0;
#X connect 71 5 12 0;
#X connect 71 6 13 0;
#X connect 71 7 22 0;
#X connect 71 8 14 0;
#X connect 71 9 15 0;
#X connect 71 10 16 0;
#X connect 71 11 17 0;
#X connect 71 12 18 0;
#X connect 71 13 19 0;
#X connect 71 14 20 0;
#X connect 71 15 21 0;
#X connect 71 16 29 0;
#X connect 71 17 28 0;
#X connect 71 18 30 0;
#X connect 71 19 27 0;
#X connect 71 20 26 0;
#X connect 71 21 25 0;
#X connect 71 22 24 0;
#X connect 71 23 23 0;
#X connect 71 24 38 0;
#X connect 71 25 37 0;
#X connect 71 26 36 0;
#X connect 71 27 35 0;
#X connect 71 28 34 0;
#X connect 71 29 33 0;
#X connect 71 30 32 0;
#X connect 71 31 31 0;
#X connect 72 0 70 0;
#X connect 72 1 68 0;
