#N canvas 114 398 899 562 10;
#X obj 300 298 + 1;
#X obj 472 130 != 1;
#X obj 262 374 spigot;
#X obj 383 363 spigot;
#X obj 395 303 + 10;
#X obj 40 371 spigot;
#X obj 148 375 spigot;
#X obj 160 313 - 10;
#X obj 36 302 - 1;
#X obj 111 20 inlet;
#X obj 220 18 inlet;
#X obj 347 63 inlet;
#X obj 446 66 inlet;
#X obj 545 75 inlet;
#X obj 640 68 inlet;
#X text 424 37 instrument;
#X text 545 36 page;
#X obj 111 61 spigot;
#X obj 114 97 spigot;
#X obj 219 51 spigot;
#X obj 222 87 spigot, f 14;
#X obj 214 479 outlet;
#X obj 38 416 clip 1 99;
#X obj 148 415 clip 1 99;
#X obj 263 418 clip 1 99;
#X obj 371 419 clip 1 99;
#X obj 558 128 spigot;
#X obj 561 164 spigot, f 14;
#X text 620 42 deger degistirmeleri;
#X obj 113 198 v \$1\$3\$2;
#X obj 222 194 v \$1\$3\$2;
#X obj 642 284 v \$1\$3\$2;
#X obj 561 186 select 1;
#X obj 633 186 select 0;
#X obj 607 322 int;
#X obj 633 208 t b b b;
#X obj 567 210 t b b b b;
#X obj 592 252 int 0;
#X text 645 124 parameter lock function;
#X obj 548 254 int 1;
#X obj 112 148 spigot 1;
#X obj 222 139 spigot 1;
#X obj 558 328 int;
#X obj 728 253 int 0;
#X obj 684 255 int 1;
#X obj 473 285 spigot 0;
#X obj 573 285 spigot 0;
#X obj 529 464 spigot 0;
#X obj 633 473 spigot 0;
#X obj 572 515 print paramLock;
#X obj 688 332 t b f;
#X obj 259 515 int;
#X obj 812 493 print baboli;
#X obj 765 495 s baboli;
#X text 851 186 yorugnlun rusyadan iki gon once bar with us whatever
means;
#X obj 688 354 t b b;
#X obj 764 358 symbol \$1;
#X obj 733 404 symbol \$3;
#X obj 699 438 pack s f s;
#X obj 805 425 spigot 0;
#X obj 647 368 change;
#X obj 647 390 int 1;
#X obj 762 218 int 0;
#X obj 688 376 t b b;
#X connect 0 0 2 0;
#X connect 1 0 3 1;
#X connect 1 0 6 1;
#X connect 2 0 24 0;
#X connect 3 0 25 0;
#X connect 4 0 3 0;
#X connect 5 0 22 0;
#X connect 6 0 23 0;
#X connect 7 0 6 0;
#X connect 8 0 5 0;
#X connect 9 0 17 0;
#X connect 10 0 19 0;
#X connect 11 0 1 0;
#X connect 11 0 2 1;
#X connect 11 0 5 1;
#X connect 12 0 17 1;
#X connect 12 0 19 1;
#X connect 12 0 26 1;
#X connect 13 0 18 1;
#X connect 13 0 20 1;
#X connect 13 0 27 1;
#X connect 14 0 26 0;
#X connect 17 0 18 0;
#X connect 18 0 40 0;
#X connect 18 0 45 0;
#X connect 19 0 20 0;
#X connect 20 0 41 0;
#X connect 20 0 46 0;
#X connect 22 0 21 0;
#X connect 22 0 29 0;
#X connect 22 0 47 0;
#X connect 22 0 51 0;
#X connect 23 0 21 0;
#X connect 23 0 29 0;
#X connect 23 0 47 0;
#X connect 23 0 51 0;
#X connect 24 0 21 0;
#X connect 24 0 30 0;
#X connect 24 0 48 0;
#X connect 24 0 51 0;
#X connect 25 0 21 0;
#X connect 25 0 30 0;
#X connect 25 0 48 0;
#X connect 25 0 51 0;
#X connect 26 0 27 0;
#X connect 27 0 32 0;
#X connect 27 0 33 0;
#X connect 29 0 8 0;
#X connect 29 0 7 0;
#X connect 30 0 0 0;
#X connect 30 0 4 0;
#X connect 31 0 34 1;
#X connect 31 0 42 1;
#X connect 32 0 36 0;
#X connect 33 0 35 0;
#X connect 34 0 0 0;
#X connect 34 0 4 0;
#X connect 34 0 49 0;
#X connect 35 0 50 0;
#X connect 35 1 44 0;
#X connect 35 2 43 0;
#X connect 36 1 39 0;
#X connect 36 2 37 0;
#X connect 36 3 31 0;
#X connect 37 0 41 1;
#X connect 37 0 40 1;
#X connect 37 0 59 1;
#X connect 39 0 45 1;
#X connect 39 0 46 1;
#X connect 39 0 47 1;
#X connect 39 0 48 1;
#X connect 40 0 29 0;
#X connect 41 0 30 0;
#X connect 42 0 8 0;
#X connect 42 0 7 0;
#X connect 42 0 49 0;
#X connect 43 0 46 1;
#X connect 43 0 45 1;
#X connect 43 0 47 1;
#X connect 43 0 48 1;
#X connect 44 0 41 1;
#X connect 44 0 40 1;
#X connect 45 0 42 0;
#X connect 46 0 34 0;
#X connect 47 0 42 1;
#X connect 47 0 60 0;
#X connect 48 0 34 1;
#X connect 48 0 60 0;
#X connect 50 0 55 0;
#X connect 51 0 58 1;
#X connect 55 0 63 0;
#X connect 55 1 56 0;
#X connect 56 0 58 2;
#X connect 57 0 58 0;
#X connect 58 0 59 0;
#X connect 59 0 53 0;
#X connect 59 0 52 0;
#X connect 60 0 61 0;
#X connect 61 0 59 1;
#X connect 62 0 59 1;
#X connect 63 0 62 0;
#X connect 63 1 57 0;
